HIERARCHY
ROOT Root
{
  OFFSET 0.0 0.0 0.0
  CHANNELS 6 Xposition Yposition Zposition Zrotation Yrotation Xrotation
  JOINT Hips
  {
    OFFSET 0.0 100.0 0.0
    CHANNELS 6 Xposition Yposition Zposition Zrotation Yrotation Xrotation
    JOINT Spine1
    {
      OFFSET 5.003913 -0.037094 -0.013727
      CHANNELS 3 Zrotation Yrotation Xrotation
      JOINT Spine2
      {
        OFFSET 7.125363 -1e-06 0.0
        CHANNELS 3 Zrotation Yrotation Xrotation
        JOINT Chest
        {
          OFFSET 7.594027 1e-06 0.0
          CHANNELS 3 Zrotation Yrotation Xrotation
          JOINT Neck1
          {
            OFFSET 26.313086 -0.460272 -0.181672
            CHANNELS 3 Zrotation Yrotation Xrotation
            JOINT Neck2
            {
              OFFSET 8.045911 0.0 0.0
              CHANNELS 3 Zrotation Yrotation Xrotation
              JOINT Head
              {
                OFFSET 6.432774 0.0 0.0
                CHANNELS 3 Zrotation Yrotation Xrotation
                JOINT HeadEnd
                {
                  OFFSET 16.169773 0.06451 0.00362
                  CHANNELS 3 Zrotation Yrotation Xrotation
                }
                JOINT Jaw
                {
                  OFFSET 0.108741 3.12938 0.002639
                  CHANNELS 3 Zrotation Yrotation Xrotation
                }
                JOINT LeftEye
                {
                  OFFSET 4.45173 8.166359 3.206392
                  CHANNELS 3 Zrotation Yrotation Xrotation
                }
                JOINT RightEye
                {
                  OFFSET 4.436895 8.135758 -3.222429
                  CHANNELS 3 Zrotation Yrotation Xrotation
                }
              }
            }
          }
          JOINT LeftShoulder
          {
            OFFSET 23.218927 5.195579 1.621656
            CHANNELS 3 Zrotation Yrotation Xrotation
            JOINT LeftArm
            {
              OFFSET 15.902118 2e-06 -2e-06
              CHANNELS 3 Zrotation Yrotation Xrotation
              JOINT LeftForeArm
              {
                OFFSET 28.739307 0.0 -1e-06
                CHANNELS 3 Zrotation Yrotation Xrotation
                JOINT LeftHand
                {
                  OFFSET 27.093981 -4e-06 0.0
                  CHANNELS 3 Zrotation Yrotation Xrotation
                  JOINT LeftHandThumb1
                  {
                    OFFSET 2.276781 3.380274 0.83384
                    CHANNELS 3 Zrotation Yrotation Xrotation
                    JOINT LeftHandThumb2
                    {
                      OFFSET 4.705309 -1e-06 -1e-06
                      CHANNELS 3 Zrotation Yrotation Xrotation
                      JOINT LeftHandThumb3
                      {
                        OFFSET 2.798515 0.0 3e-06
                        CHANNELS 3 Zrotation Yrotation Xrotation
                        JOINT LeftHandThumbEnd
                        {
                          OFFSET 3.180793 4e-06 -4e-06
                          CHANNELS 3 Zrotation Yrotation Xrotation
                        }
                      }
                    }
                  }
                  JOINT LeftHandIndex1
                  {
                    OFFSET 3.247786 2.352677 0.137192
                    CHANNELS 3 Zrotation Yrotation Xrotation
                    JOINT LeftHandIndex2
                    {
                      OFFSET 6.367095 1e-06 0.0
                      CHANNELS 3 Zrotation Yrotation Xrotation
                      JOINT LeftHandIndex3
                      {
                        OFFSET 3.662364 0.0 0.0
                        CHANNELS 3 Zrotation Yrotation Xrotation
                        JOINT LeftHandIndex4
                        {
                          OFFSET 2.329242 4e-06 -4e-06
                          CHANNELS 3 Zrotation Yrotation Xrotation
                          JOINT LeftHandIndexEnd
                          {
                            OFFSET 2.767823 1e-06 0.0
                            CHANNELS 3 Zrotation Yrotation Xrotation
                          }
                        }
                      }
                    }
                  }
                  JOINT LeftHandMiddle1
                  {
                    OFFSET 3.163612 0.945023 -0.406112
                    CHANNELS 3 Zrotation Yrotation Xrotation
                    JOINT LeftHandMiddle2
                    {
                      OFFSET 6.276789 3e-06 0.0
                      CHANNELS 3 Zrotation Yrotation Xrotation
                      JOINT LeftHandMiddle3
                      {
                        OFFSET 4.35652 -1e-06 4e-06
                        CHANNELS 3 Zrotation Yrotation Xrotation
                        JOINT LeftHandMiddle4
                        {
                          OFFSET 2.996877 0.0 8e-06
                          CHANNELS 3 Zrotation Yrotation Xrotation
                          JOINT LeftHandMiddleEnd
                          {
                            OFFSET 2.323256 3e-06 -4e-06
                            CHANNELS 3 Zrotation Yrotation Xrotation
                          }
                        }
                      }
                    }
                  }
                  JOINT LeftHandRing1
                  {
                    OFFSET 2.882606 -0.309162 0.107445
                    CHANNELS 3 Zrotation Yrotation Xrotation
                    JOINT LeftHandRing2
                    {
                      OFFSET 6.033198 0.0 4e-06
                      CHANNELS 3 Zrotation Yrotation Xrotation
                      JOINT LeftHandRing3
                      {
                        OFFSET 4.350578 3e-06 0.0
                        CHANNELS 3 Zrotation Yrotation Xrotation
                        JOINT LeftHandRing4
                        {
                          OFFSET 2.651321 2e-06 -7e-06
                          CHANNELS 3 Zrotation Yrotation Xrotation
                          JOINT LeftHandRingEnd
                          {
                            OFFSET 1.937663 1e-06 -4e-06
                            CHANNELS 3 Zrotation Yrotation Xrotation
                          }
                        }
                      }
                    }
                  }
                  JOINT LeftHandPinky1
                  {
                    OFFSET 2.865315 -1.525436 0.575687
                    CHANNELS 3 Zrotation Yrotation Xrotation
                    JOINT LeftHandPinky2
                    {
                      OFFSET 5.54936 1e-06 -8e-06
                      CHANNELS 3 Zrotation Yrotation Xrotation
                      JOINT LeftHandPinky3
                      {
                        OFFSET 3.070974 0.0 -4e-06
                        CHANNELS 3 Zrotation Yrotation Xrotation
                        JOINT LeftHandPinky4
                        {
                          OFFSET 1.549672 1e-06 0.0
                          CHANNELS 3 Zrotation Yrotation Xrotation
                          JOINT LeftHandPinkyEnd
                          {
                            OFFSET 1.952123 0.0 0.0
                            CHANNELS 3 Zrotation Yrotation Xrotation
                          }
                        }
                      }
                    }
                  }
                }
              }
            }
          }
          JOINT RightShoulder
          {
            OFFSET 23.161716 5.296122 -1.380114
            CHANNELS 3 Zrotation Yrotation Xrotation
            JOINT RightArm
            {
              OFFSET -16.027195 -2e-06 1.1e-05
              CHANNELS 3 Zrotation Yrotation Xrotation
              JOINT RightForeArm
              {
                OFFSET -28.736639 4e-06 2e-06
                CHANNELS 3 Zrotation Yrotation Xrotation
                JOINT RightHand
                {
                  OFFSET -27.133619 6e-06 0.0
                  CHANNELS 3 Zrotation Yrotation Xrotation
                  JOINT RightHandThumb1
                  {
                    OFFSET -2.274328 -3.351035 -0.83067
                    CHANNELS 3 Zrotation Yrotation Xrotation
                    JOINT RightHandThumb2
                    {
                      OFFSET -4.703594 -3e-06 2e-06
                      CHANNELS 3 Zrotation Yrotation Xrotation
                      JOINT RightHandThumb3
                      {
                        OFFSET -2.794935 -4e-06 -3e-06
                        CHANNELS 3 Zrotation Yrotation Xrotation
                        JOINT RightHandThumbEnd
                        {
                          OFFSET -3.183852 4e-06 1e-06
                          CHANNELS 3 Zrotation Yrotation Xrotation
                        }
                      }
                    }
                  }
                  JOINT RightHandIndex1
                  {
                    OFFSET -3.253496 -2.33755 -0.127667
                    CHANNELS 3 Zrotation Yrotation Xrotation
                    JOINT RightHandIndex2
                    {
                      OFFSET -6.344434 0.0 0.0
                      CHANNELS 3 Zrotation Yrotation Xrotation
                      JOINT RightHandIndex3
                      {
                        OFFSET -3.654871 0.0 -8e-06
                        CHANNELS 3 Zrotation Yrotation Xrotation
                        JOINT RightHandIndex4
                        {
                          OFFSET -2.327586 -1e-06 0.0
                          CHANNELS 3 Zrotation Yrotation Xrotation
                          JOINT RightHandIndexEnd
                          {
                            OFFSET -2.770001 3e-06 8e-06
                            CHANNELS 3 Zrotation Yrotation Xrotation
                          }
                        }
                      }
                    }
                  }
                  JOINT RightHandMiddle1
                  {
                    OFFSET -3.168223 -0.944764 0.411762
                    CHANNELS 3 Zrotation Yrotation Xrotation
                    JOINT RightHandMiddle2
                    {
                      OFFSET -6.266691 -1e-06 -4e-06
                      CHANNELS 3 Zrotation Yrotation Xrotation
                      JOINT RightHandMiddle3
                      {
                        OFFSET -4.348901 0.0 0.0
                        CHANNELS 3 Zrotation Yrotation Xrotation
                        JOINT RightHandMiddle4
                        {
                          OFFSET -3.00024 2e-06 -4e-06
                          CHANNELS 3 Zrotation Yrotation Xrotation
                          JOINT RightHandMiddleEnd
                          {
                            OFFSET -2.321477 -4e-06 -4e-06
                            CHANNELS 3 Zrotation Yrotation Xrotation
                          }
                        }
                      }
                    }
                  }
                  JOINT RightHandRing1
                  {
                    OFFSET -2.885654 0.293261 -0.119232
                    CHANNELS 3 Zrotation Yrotation Xrotation
                    JOINT RightHandRing2
                    {
                      OFFSET -6.032835 -1e-06 -4e-06
                      CHANNELS 3 Zrotation Yrotation Xrotation
                      JOINT RightHandRing3
                      {
                        OFFSET -4.33881 0.0 -4e-06
                        CHANNELS 3 Zrotation Yrotation Xrotation
                        JOINT RightHandRing4
                        {
                          OFFSET -2.654903 -4e-06 -4e-06
                          CHANNELS 3 Zrotation Yrotation Xrotation
                          JOINT RightHandRingEnd
                          {
                            OFFSET -1.935122 0.0 4e-06
                            CHANNELS 3 Zrotation Yrotation Xrotation
                          }
                        }
                      }
                    }
                  }
                  JOINT RightHandPinky1
                  {
                    OFFSET -2.866241 1.503904 -0.60527
                    CHANNELS 3 Zrotation Yrotation Xrotation
                    JOINT RightHandPinky2
                    {
                      OFFSET -5.553177 -2e-06 0.0
                      CHANNELS 3 Zrotation Yrotation Xrotation
                      JOINT RightHandPinky3
                      {
                        OFFSET -3.062664 -1e-06 -4e-06
                        CHANNELS 3 Zrotation Yrotation Xrotation
                        JOINT RightHandPinky4
                        {
                          OFFSET -1.546529 2e-06 4e-06
                          CHANNELS 3 Zrotation Yrotation Xrotation
                          JOINT RightHandPinkyEnd
                          {
                            OFFSET -1.952341 0.0 -4e-06
                            CHANNELS 3 Zrotation Yrotation Xrotation
                          }
                        }
                      }
                    }
                  }
                }
              }
            }
          }
        }
      }
    }
    JOINT LeftLeg
    {
      OFFSET -8.443107 2.567604 10.043214
      CHANNELS 3 Zrotation Yrotation Xrotation
      JOINT LeftShin
      {
        OFFSET 43.229198 1e-06 -1e-06
        CHANNELS 3 Zrotation Yrotation Xrotation
        JOINT LeftFoot
        {
          OFFSET 42.298611 1e-06 1e-06
          CHANNELS 3 Zrotation Yrotation Xrotation
          JOINT LeftToeBase
          {
            OFFSET 14.165858 1e-06 0.0
            CHANNELS 3 Zrotation Yrotation Xrotation
            JOINT LeftToeEnd
            {
              OFFSET 6.7141 -0.234461 0.0
              CHANNELS 3 Zrotation Yrotation Xrotation
            }
          }
        }
      }
    }
    JOINT RightLeg
    {
      OFFSET -8.303923 2.592729 -10.047278
      CHANNELS 3 Zrotation Yrotation Xrotation
      JOINT RightShin
      {
        OFFSET -43.369682 0.0 1e-06
        CHANNELS 3 Zrotation Yrotation Xrotation
        JOINT RightFoot
        {
          OFFSET -42.260784 4e-06 2e-06
          CHANNELS 3 Zrotation Yrotation Xrotation
          JOINT RightToeBase
          {
            OFFSET -14.222245 -2e-06 -1e-06
            CHANNELS 3 Zrotation Yrotation Xrotation
            JOINT RightToeEnd
            {
              OFFSET -6.660062 0.232574 -2e-06
              CHANNELS 3 Zrotation Yrotation Xrotation
            }
          }
        }
      }
    }
  }
}
MOTION
Frames: 5
Frame Time: 0.03333333333333333
0.0 0.0 0.0 0.0 -0.0 0.0 1.423073 97.786781 3.152575 94.391075 0.076553 90.136169 4.434042 -2.434282 -0.03498 -10.403817 -1.186382 0.803085 22.11751 -2.967896 -2.194965 41.49696 0.490551 2.766885 -2.622703 -0.692002 -1.456177 -36.081299 -1.278911 -1.342554 5e-06 0.0 0.0 0.028396 0.031213 -0.059711 0.175486 -0.01758 -0.018299 0.148042 0.076392 -0.099733 -102.101921 -74.456451 126.253975 24.095549 -34.283775 27.316509 50.700024 -1.271573 -0.664012 3.916206 4.947309 -9.910972 17.636625 -26.322731 52.411182 -19.46666 -14.395594 29.410381 -2e-06 -8.774819 -2e-06 16.344007 -18.526178 6.135368 -0.609776 -1.795653 -3.889326 -4.807086 -11.046807 -2.93785 7e-06 -20.976011 2e-06 -5.019969 -25.033545 -4.031877 5e-06 -0.0 1e-06 -10.634533 -5.686969 -3.565588 10.573275 -17.922947 -3.1139 3e-06 -13.821206 1e-06 -0.501773 -31.181498 -4.027015 -11.456027 -59.684856 7.509492 -13.982711 -7.150195 -2.875039 13.772729 -8.401492 -3.218244 0.347737 -34.211544 0.771657 -0.963028 -17.733366 2.62102 1e-06 -0.0 0.0 -17.346413 -20.095213 -4.201781 21.757555 -1.638377 3.866428 2e-06 -6.338821 -0.0 -1.697587 -22.591745 -6.194005 -1e-06 -2e-06 1e-06 74.582779 -79.145432 128.879532 25.494129 -35.441132 20.709387 48.242573 -0.304383 0.422499 3.650687 -1.541289 -12.057904 22.182108 -20.375891 49.933304 -16.701811 -16.74353 28.47653 -4e-06 -12.690598 -1e-06 16.173746 -17.498222 2.634642 -0.105919 -1.513856 -4.275879 -5.03904 -5.61287 -2.953555 5e-06 -11.020523 -3e-06 -6.111297 -15.89533 -3.840469 0.0 -0.0 0.0 -10.283367 -5.680286 -4.341837 11.028294 -11.302404 -2.372633 -1.384267 -14.238577 -6.32012 -0.625433 -26.924191 -3.827598 -4.25598 -49.580269 -3.815944 -13.708523 -7.363473 -3.720938 18.141148 -14.052739 -3.242674 8e-06 -18.787266 -2e-06 -0.42971 -8.456041 2.555504 1e-06 1e-06 -1e-06 -15.923534 -20.094479 -5.473579 30.419207 -7.190827 1.735923 3e-06 -8.162925 1e-06 -1.861901 -22.861469 -6.16794 1e-06 -1e-06 -2e-06 163.718826 4.567959 -17.248205 24.937618 0.034506 -0.201025 -78.687843 -3.738111 2.186479 -4.761418 1.27236 2.080511 -0.999999 -0.0 0.0 4.637408 -10.107911 -15.359825 39.912956 -0.242988 0.209133 -81.055641 7.999255 -3.504881 -15.418937 0.889223 1.665609 -1.000003 0.0 -0.0 
0.0 0.0 0.0 0.0 -0.0 0.0 2.113997 98.107666 4.861001 94.010048 -0.026312 89.924026 4.686797 -2.350904 -0.202015 -10.288224 -1.071297 0.670299 21.931767 -2.679108 -2.323553 41.442795 0.723368 2.739567 -2.644488 -0.684748 -1.536238 -36.056267 -1.367107 -1.269388 4e-06 -0.0 -0.0 0.001545 0.016383 -0.025072 0.152209 -0.037345 0.008853 0.11893 0.068162 -0.060653 -99.514618 -74.864929 123.551018 24.267572 -34.079002 26.971287 51.663784 -1.08083 -0.627699 3.561151 4.787699 -9.520039 17.636631 -26.322727 52.411179 -19.466665 -14.395597 29.410381 -1e-06 -8.774822 -3e-06 16.350506 -18.383091 6.109546 -0.609776 -1.795653 -3.88933 -4.807088 -11.046811 -2.937848 6e-06 -20.976019 -2e-06 -5.019968 -25.03356 -4.03188 3e-06 0.0 -0.0 -10.634534 -5.68697 -3.565588 10.573276 -17.922951 -3.113903 3e-06 -13.821206 -0.0 -0.501773 -31.181501 -4.027016 -11.305951 -59.732368 7.437643 -13.982713 -7.150197 -2.875039 13.77273 -8.401492 -3.218243 0.347734 -34.211544 0.771654 -0.963028 -17.73337 2.62102 0.0 -2e-06 -1e-06 -17.346416 -20.095217 -4.20178 21.757557 -1.638376 3.866426 2e-06 -6.338822 -0.0 -1.697586 -22.591745 -6.194004 1e-06 -2e-06 -3e-06 75.966972 -79.180252 127.36393 25.489676 -35.025864 20.888306 48.10844 -0.344504 0.444338 3.427352 -1.711357 -12.060083 22.182117 -20.3759 49.933315 -16.701809 -16.743528 28.476526 -3e-06 -12.6906 -1e-06 16.32309 -17.51067 2.626642 -0.10592 -1.513855 -4.27588 -5.039042 -5.612871 -2.953559 4e-06 -11.020524 -1e-06 -6.111298 -15.89533 -3.840468 0.0 1e-06 -1e-06 -10.283371 -5.680288 -4.341837 11.028294 -11.302404 -2.372633 -1.384271 -14.238579 -6.320118 -0.625443 -26.924191 -3.827598 -4.273847 -49.684891 -3.687617 -13.708526 -7.363475 -3.720938 18.141148 -14.05274 -3.242671 7e-06 -18.78727 -0.0 -0.429713 -8.456043 2.555504 1e-06 0.0 -1e-06 -15.923538 -20.094482 -5.473582 30.419214 -7.190827 1.735927 3e-06 -8.162927 0.0 -1.861903 -22.861469 -6.167942 -0.0 -3e-06 -1e-06 165.285019 4.633935 -17.750092 23.973196 0.044038 -0.070984 -79.389076 -3.237171 2.416551 -4.453969 1.287985 2.084727 -1.0 -0.0 -0.0 2.081962 -11.369801 -15.084475 45.762135 -0.245011 0.230507 -77.218262 9.239176 -3.750959 -15.139242 0.827565 1.64953 -1.000001 0.0 0.0 
0.0 0.0 0.0 0.0 -0.0 0.0 2.728639 98.296448 6.494977 93.660522 -0.065491 89.840553 4.951119 -2.308771 -0.310984 -10.215847 -1.011702 0.404275 21.884949 -2.339433 -2.367972 41.602535 1.045313 2.77692 -2.681288 -0.617903 -1.657173 -36.0453 -1.522942 -1.127033 4e-06 0.0 -0.0 0.001808 0.018932 -0.02838 0.130806 -0.037999 -0.001202 0.099752 0.074219 -0.059304 -97.724251 -75.375694 121.719078 24.3218 -33.344086 26.237246 52.88728 -0.919608 -0.577724 3.226202 4.758093 -9.812015 17.636635 -26.322741 52.411198 -19.466652 -14.395596 29.410381 -0.0 -8.774821 -2e-06 16.423868 -18.357538 6.070036 -0.609777 -1.795655 -3.889326 -4.807089 -11.046811 -2.937852 3e-06 -20.976019 -1e-06 -5.019973 -25.03356 -4.031878 4e-06 0.0 3e-06 -10.634535 -5.68697 -3.565587 10.573275 -17.922949 -3.1139 2e-06 -13.821209 2e-06 -0.501779 -31.181505 -4.027015 -11.240772 -59.816456 7.347497 -13.982714 -7.150198 -2.875041 13.77273 -8.401491 -3.218243 0.347732 -34.211555 0.771658 -0.963028 -17.73337 2.621019 -0.0 -1e-06 1e-06 -17.34642 -20.095217 -4.201779 21.757557 -1.638374 3.866429 1e-06 -6.338823 -1e-06 -1.697593 -22.591745 -6.194002 -1e-06 -1e-06 -0.0 75.503372 -79.097794 127.759727 25.543438 -34.199593 20.836742 48.084949 -0.294804 0.443453 3.331056 -1.793655 -11.907276 22.182121 -20.375896 49.933319 -16.701811 -16.74353 28.476532 -2e-06 -12.690602 -1e-06 16.330132 -17.456995 2.637758 -0.105919 -1.513856 -4.275882 -5.039042 -5.612872 -2.953556 4e-06 -11.020523 -2e-06 -6.111297 -15.89533 -3.840471 -0.0 1e-06 -1e-06 -10.283372 -5.680288 -4.341839 11.028296 -11.302405 -2.372633 -1.38427 -14.23858 -6.32012 -0.62544 -26.924187 -3.827599 -4.269241 -49.677006 -3.598918 -13.708526 -7.363476 -3.720939 18.141151 -14.052739 -3.242672 5e-06 -18.78727 -2e-06 -0.42971 -8.456046 2.555506 1e-06 0.0 -0.0 -15.923536 -20.094482 -5.473585 30.41921 -7.190826 1.735932 3e-06 -8.162925 -3e-06 -1.861904 -22.861469 -6.167942 0.0 -5e-06 -1e-06 166.574722 4.635082 -18.150917 23.607025 0.063482 -0.019965 -80.260941 -2.709512 2.604424 -4.311404 1.265336 2.080453 -0.999999 0.0 0.0 -0.644275 -12.601813 -14.67258 51.565022 -0.2575 0.267405 -74.013908 10.826836 -4.141779 -12.525551 0.762865 1.666685 -1.000004 -0.0 0.0 
0.0 0.0 0.0 0.0 -0.0 0.0 3.256711 98.417923 8.077472 93.354515 0.006393 89.787109 5.234727 -2.270865 -0.428443 -10.172156 -0.974764 0.141462 21.961966 -2.034212 -2.375079 41.900391 1.379655 2.798185 -2.71403 -0.573112 -1.679396 -36.174023 -1.596931 -0.958251 6e-06 0.0 0.0 0.006334 0.026147 -0.040923 0.102826 -0.030664 -0.017488 0.074836 0.081208 -0.068735 -96.264717 -75.88813 120.24353 24.443302 -32.225845 25.111355 54.115139 -0.813154 -0.491087 2.994349 4.992923 -10.510916 17.636621 -26.322723 52.411182 -19.466652 -14.395596 29.410378 -1e-06 -8.774819 -0.0 16.433399 -18.357849 6.040428 -0.609775 -1.795652 -3.88933 -4.807087 -11.046807 -2.93785 4e-06 -20.976011 -2e-06 -5.019972 -25.033552 -4.03188 6e-06 -0.0 1e-06 -10.634531 -5.686969 -3.565587 10.573271 -17.922945 -3.1139 3e-06 -13.821205 1e-06 -0.501782 -31.181498 -4.02701 -11.138423 -59.831776 7.26178 -13.982709 -7.150195 -2.875041 13.772727 -8.40149 -3.218241 0.347733 -34.21154 0.771655 -0.96303 -17.733364 2.621021 1e-06 0.0 -1e-06 -17.346415 -20.095213 -4.201783 21.757555 -1.638375 3.866428 2e-06 -6.338822 -0.0 -1.69759 -22.591743 -6.194005 -0.0 -4e-06 1e-06 74.940178 -78.940079 128.209732 25.839136 -33.372131 20.294214 48.150349 -0.268872 0.373912 3.277555 -1.592271 -11.666005 22.182117 -20.375898 49.933327 -16.701813 -16.743528 28.476534 -3e-06 -12.690601 -1e-06 16.313189 -17.454874 2.648069 -0.105921 -1.513856 -4.275886 -5.039041 -5.612871 -2.953554 4e-06 -11.020523 -2e-06 -6.1113 -15.89533 -3.840469 -0.0 0.0 -0.0 -10.283371 -5.680288 -4.34184 11.028296 -11.302405 -2.372633 -1.384269 -14.23858 -6.320121 -0.625436 -26.924191 -3.827603 -4.287317 -49.684231 -3.520041 -13.708526 -7.363477 -3.720941 18.141151 -14.052743 -3.242672 8e-06 -18.78727 -2e-06 -0.429713 -8.456045 2.555505 1e-06 1e-06 -1e-06 -15.923536 -20.094486 -5.473587 30.419218 -7.190828 1.73593 3e-06 -8.162926 -2e-06 -1.861901 -22.861473 -6.16794 -0.0 -0.0 0.0 167.878983 4.624223 -18.503311 23.379835 0.07245 -0.019208 -81.168411 -2.22496 2.655 -4.292201 1.251278 2.068253 -0.999999 -1e-06 -0.0 -3.353716 -13.667077 -14.156621 56.652508 -0.288526 0.292393 -71.871506 12.304708 -4.550091 -9.57036 0.714678 1.686153 -1.000004 0.0 -1e-06 
0.0 0.0 0.0 0.0 -0.0 0.0 3.725802 98.502647 9.627472 93.084679 0.182607 89.772499 5.513474 -2.190108 -0.54993 -10.133496 -0.944873 -0.081637 22.087431 -1.784733 -2.39526 42.218597 1.686027 2.789099 -2.733994 -0.572151 -1.574362 -36.31937 -1.543952 -0.800767 5e-06 0.0 -0.0 0.0058 0.026458 -0.039213 0.06979 -0.030417 -0.017332 0.04725 0.081416 -0.065418 -94.809692 -76.328445 118.761475 24.74612 -30.811199 23.764612 55.145187 -0.710102 -0.367957 2.762766 5.323165 -11.232785 17.636625 -26.322733 52.411205 -19.466656 -14.395594 29.410393 0.0 -8.774821 -1e-06 16.371731 -18.384104 6.05934 -0.609776 -1.795654 -3.889325 -4.80709 -11.04681 -2.93785 1e-06 -20.976015 -2e-06 -5.019973 -25.03356 -4.031882 8e-06 1e-06 -0.0 -10.634535 -5.686972 -3.565589 10.573272 -17.922949 -3.1139 3e-06 -13.821208 -2e-06 -0.501777 -31.181507 -4.027018 -11.090157 -59.831715 7.301645 -13.982712 -7.150198 -2.875042 13.772725 -8.401489 -3.218242 0.34773 -34.211544 0.771655 -0.963032 -17.733364 2.621019 1e-06 0.0 0.0 -17.34642 -20.095221 -4.20178 21.757555 -1.638371 3.866424 1e-06 -6.338824 -1e-06 -1.69759 -22.591747 -6.194009 -0.0 -5e-06 -0.0 75.346283 -78.858063 127.609406 26.213837 -32.734161 19.392641 48.39357 -0.323239 0.334266 3.225393 -1.091787 -11.493042 22.182121 -20.3759 49.933323 -16.701813 -16.743528 28.476532 -3e-06 -12.690602 -1e-06 16.28791 -17.484402 2.657057 -0.105919 -1.513856 -4.27588 -5.039042 -5.612873 -2.953557 4e-06 -11.020525 -1e-06 -6.111299 -15.895334 -3.84047 -0.0 0.0 -2e-06 -10.283372 -5.680288 -4.341839 11.028296 -11.302406 -2.372633 -1.384269 -14.238582 -6.320122 -0.62544 -26.924194 -3.827599 -4.283206 -49.725761 -3.473513 -13.708527 -7.363475 -3.720937 18.141151 -14.052742 -3.242675 8e-06 -18.787271 -1e-06 -0.429715 -8.456047 2.555509 1e-06 -0.0 -1e-06 -15.923536 -20.094484 -5.473584 30.419214 -7.190831 1.735928 5e-06 -8.162927 -2e-06 -1.861903 -22.861471 -6.167935 0.0 -0.0 -2e-06 169.27565 4.644264 -18.733578 23.133408 0.076835 -0.014585 -82.029129 -1.811814 2.604577 -4.277965 1.23496 2.051889 -0.999999 -0.0 -0.0 -5.929531 -14.509252 -13.77274 60.566628 -0.309344 0.30785 -71.568939 12.980653 -4.902586 -7.814899 0.697865 1.708606 -1.000002 0.0 -1e-06 
